# xmcd
#
# Track frame offsets:
#	150
#	11326
#	21393
#	34851
#	48194
#	61552
#	74236
#	84456
#	98163
#	111020
#	118963
#	134273
#	147171
#	160094
#	174679
#
# Disc length: 2459 seconds
#
# Revision: 1
# Processed by: cddbd v1.5.2PL0 Copyright (c) Steve Scherf et al.
# Submitted via: EasyCDDAExtractor 2011.3.0.0
#
DISCID=ca09990f
DTITLE=Various Artist - Jahrtausendhits Country
DYEAR=1900
DGENRE=Country
TTITLE0=Sally was a good old girl
TTITLE1=Six days on the road
TTITLE2=Ruby, don't take your love to
TTITLE3=Raindrops keep falling
TTITLE4=Rose garden
TTITLE5=Ruben james
TTITLE6=Sticks and stones
TTITLE7=Rio Bravo
TTITLE8=Let your love flow
TTITLE9=Hello walls
TTITLE10=Harper valley p.t.a
TTITLE11=Folsom prison blues
TTITLE12=Fraulein
TTITLE13=If I said you have a beautiful
TTITLE14=Abilene
EXTD=
EXTT0=
EXTT1=
EXTT2=
EXTT3=
EXTT4=
EXTT5=
EXTT6=
EXTT7=
EXTT8=
EXTT9=
EXTT10=
EXTT11=
EXTT12=
EXTT13=
EXTT14=
PLAYORDER=
